<svg width="66" height="28" viewBox="0 0 66 28" fill="none" xmlns="http://www.w3.org/2000/svg">
<path d="M9.71939 5.96986C10.4121 5.70508 11.1511 5.56386 11.9177 5.56386C15.2738 5.56386 18.0756 8.29637 18.716 11.9291L23.4729 10.8171C22.383 4.64597 17.623 0 11.9177 0C10.6092 0 9.35608 0.243595 8.17993 0.695483L9.71939 5.96986Z" fill="#FFCB05"/>
<path d="M4.10638 23.6429L7.32385 19.4735C5.88907 18.0155 4.98387 15.8867 4.98387 13.5143C4.98387 11.1454 5.88907 9.01657 7.32385 7.56206L4.10638 3.38916C1.66788 5.86748 0.128418 9.48611 0.128418 13.5143C0.128418 17.5459 1.66788 21.1646 4.10638 23.6429" fill="#00A4E0"/>
<path d="M18.716 15.11C18.0725 18.7392 15.2738 21.4682 11.9208 21.4682C11.1511 21.4682 10.4091 21.327 9.71939 21.0587L8.17993 26.3401C9.35608 26.7885 10.6123 27.032 11.9208 27.032C17.6199 27.032 22.3768 22.3931 23.4729 16.2291L18.716 15.11Z" fill="#EF4123"/>
<path d="M31.9749 19.0792C31.8179 18.7897 31.6085 18.3272 31.4792 17.9848C30.7249 15.9795 30.691 13.9037 31.3253 11.9125C32.0242 9.72724 33.3604 8.05738 35.0877 7.20303C37.2584 6.13333 39.6568 6.34162 41.7382 7.7573C43.059 8.62577 43.995 9.96731 44.7063 11.8666C44.7955 12.1102 44.8756 12.368 44.9556 12.5904L31.9749 19.0792ZM36.3101 10.4263C34.7675 11.1853 33.9732 12.8446 34.1394 14.7863L40.6667 11.563C39.5429 10.052 38.0835 9.55073 36.3101 10.4263V10.4263ZM41.4796 17.4376C41.4765 17.4376 41.4765 17.4411 41.4765 17.4411L41.341 17.3352C40.95 18.0589 40.3434 18.6485 39.5768 19.0298C38.1174 19.757 36.7657 19.5699 35.7928 18.592L35.7035 18.7473C35.7035 18.7473 35.7035 18.7438 35.7004 18.7438L34.044 21.5858C34.4565 21.9141 34.8968 22.1895 35.3587 22.4119C37.1875 23.2839 39.0595 23.2415 40.9038 22.3236C42.237 21.6599 43.2838 20.6502 43.9981 19.3687L41.4796 17.4376ZM49.4909 3.02307V18.8179L51.6338 19.8135L50.4176 23.0685L48.053 21.9388C47.5235 21.674 47.1602 21.2716 46.8892 20.8161C46.6275 20.3537 46.4335 19.7147 46.4335 18.8603V3.02307H49.4909ZM55.0391 14.7969C55.0391 13.4518 55.5594 12.2444 56.3784 11.4254L54.1801 8.61518C52.6899 10.1262 51.7508 12.3327 51.7508 14.7898C51.7477 17.2505 52.6868 19.4605 54.1739 20.9715L56.3692 18.1613C55.5533 17.3387 55.0391 16.1384 55.0391 14.7969V14.7969ZM58.9432 19.2769C58.5121 19.2769 58.0934 19.1922 57.7054 19.0439L56.6555 22.6202C57.3729 22.8955 58.1396 23.0473 58.9401 23.0473C62.4193 23.0509 65.3227 20.2195 65.997 16.4597L62.7703 15.7042C62.4039 17.7482 60.8305 19.2804 58.9432 19.2769V19.2769ZM58.9524 6.54638C58.155 6.54638 57.3883 6.69466 56.6709 6.9665L57.7116 10.5463C58.1026 10.398 58.5183 10.3168 58.9493 10.3168C60.8398 10.3203 62.4162 11.8596 62.7733 13.9072L66 13.1588C65.3381 9.39186 62.4347 6.54991 58.9524 6.54638V6.54638Z" fill="white"/>
</svg>
<svg width="66" height="28" viewBox="0 0 66 28" fill="none" xmlns="http://www.w3.org/2000/svg">
<path d="M9.71939 5.96986C10.4121 5.70508 11.1511 5.56386 11.9177 5.56386C15.2738 5.56386 18.0756 8.29637 18.716 11.9291L23.4729 10.8171C22.383 4.64597 17.623 0 11.9177 0C10.6092 0 9.35608 0.243595 8.17993 0.695483L9.71939 5.96986Z" fill="#FFCB05"/>
<path d="M4.10638 23.6429L7.32385 19.4735C5.88907 18.0155 4.98387 15.8867 4.98387 13.5143C4.98387 11.1454 5.88907 9.01657 7.32385 7.56206L4.10638 3.38916C1.66788 5.86748 0.128418 9.48611 0.128418 13.5143C0.128418 17.5459 1.66788 21.1646 4.10638 23.6429" fill="#00A4E0"/>
<path d="M18.716 15.11C18.0725 18.7392 15.2738 21.4682 11.9208 21.4682C11.1511 21.4682 10.4091 21.327 9.71939 21.0587L8.17993 26.3401C9.35608 26.7885 10.6123 27.032 11.9208 27.032C17.6199 27.032 22.3768 22.3931 23.4729 16.2291L18.716 15.11Z" fill="#EF4123"/>
<path d="M31.9749 19.0792C31.8179 18.7897 31.6085 18.3272 31.4792 17.9848C30.7249 15.9795 30.691 13.9037 31.3253 11.9125C32.0242 9.72724 33.3604 8.05738 35.0877 7.20303C37.2584 6.13333 39.6568 6.34162 41.7382 7.7573C43.059 8.62577 43.995 9.96731 44.7063 11.8666C44.7955 12.1102 44.8756 12.368 44.9556 12.5904L31.9749 19.0792ZM36.3101 10.4263C34.7675 11.1853 33.9732 12.8446 34.1394 14.7863L40.6667 11.563C39.5429 10.052 38.0835 9.55073 36.3101 10.4263V10.4263ZM41.4796 17.4376C41.4765 17.4376 41.4765 17.4411 41.4765 17.4411L41.341 17.3352C40.95 18.0589 40.3434 18.6485 39.5768 19.0298C38.1174 19.757 36.7657 19.5699 35.7928 18.592L35.7035 18.7473C35.7035 18.7473 35.7035 18.7438 35.7004 18.7438L34.044 21.5858C34.4565 21.9141 34.8968 22.1895 35.3587 22.4119C37.1875 23.2839 39.0595 23.2415 40.9038 22.3236C42.237 21.6599 43.2838 20.6502 43.9981 19.3687L41.4796 17.4376ZM49.4909 3.02307V18.8179L51.6338 19.8135L50.4176 23.0685L48.053 21.9388C47.5235 21.674 47.1602 21.2716 46.8892 20.8161C46.6275 20.3537 46.4335 19.7147 46.4335 18.8603V3.02307H49.4909ZM55.0391 14.7969C55.0391 13.4518 55.5594 12.2444 56.3784 11.4254L54.1801 8.61518C52.6899 10.1262 51.7508 12.3327 51.7508 14.7898C51.7477 17.2505 52.6868 19.4605 54.1739 20.9715L56.3692 18.1613C55.5533 17.3387 55.0391 16.1384 55.0391 14.7969V14.7969ZM58.9432 19.2769C58.5121 19.2769 58.0934 19.1922 57.7054 19.0439L56.6555 22.6202C57.3729 22.8955 58.1396 23.0473 58.9401 23.0473C62.4193 23.0509 65.3227 20.2195 65.997 16.4597L62.7703 15.7042C62.4039 17.7482 60.8305 19.2804 58.9432 19.2769V19.2769ZM58.9524 6.54638C58.155 6.54638 57.3883 6.69466 56.6709 6.9665L57.7116 10.5463C58.1026 10.398 58.5183 10.3168 58.9493 10.3168C60.8398 10.3203 62.4162 11.8596 62.7733 13.9072L66 13.1588C65.3381 9.39186 62.4347 6.54991 58.9524 6.54638V6.54638Z" fill="white"/>
</svg>
